<?xml version="1.0" standalone="no"?><!DOCTYPE svg PUBLIC "-//W3C//DTD SVG 1.1//EN" "http://www.w3.org/Graphics/SVG/1.1/DTD/svg11.dtd"><svg t="1570157369278" class="icon" viewBox="0 0 3415 1024" version="1.1" xmlns="http://www.w3.org/2000/svg" p-id="34268" xmlns:xlink="http://www.w3.org/1999/xlink" width="666.9921875" height="200"><defs><style type="text/css"></style></defs><path d="M613.202267 0.003413a129.876684 129.876684 0 0 1 130.559348 129.876684v527.357363c0 94.036863-4.266645 157.012548-13.141268 189.439053a231.081511 231.081511 0 0 1-38.229142 81.066262 271.529309 271.529309 0 0 1-65.535673 59.733034 157.35388 157.35388 0 0 1-89.25822 26.965199H226.985532c-26.794533 0-53.930397-4.607977-81.578259-13.653265a196.09502 196.09502 0 0 1-75.092958-46.591767 214.356262 214.356262 0 0 1-52.223739-83.626249C6.143969 836.60723 0 789.844797 0 730.453094v-7.33863c0-70.143649 56.831716-126.975365 126.975365-126.975365h17.749245a109.226121 109.226121 0 0 1 109.22612 109.226121c0 13.653265 2.218656 26.282535 6.485301 37.88781a64.853009 64.853009 0 0 0 24.405211 30.207849c12.117273 8.533291 35.157158 12.970602 69.290321 12.970602h43.690448c23.210551 0 40.959795-4.266645 52.735736-12.970602a67.924994 67.924994 0 0 0 24.746543-38.741139c4.778643-17.066581 7.167964-41.471793 7.167964-72.874303V131.41609A131.412676 131.412676 0 0 1 613.202267 0.003413z m516.264086 500.050833h-125.268707a63.658348 63.658348 0 0 1-63.487683-64.853009c0-20.479898 2.389321-38.399808 7.33863-53.418399a122.70872 122.70872 0 0 1 26.965199-43.861114 159.913867 159.913867 0 0 1 47.786427-35.498489c18.773239-9.215954 39.082471-15.189257 60.927696-17.578579a786.769399 786.769399 0 0 1 72.703636-4.437311l262.654687-1.535993c25.941204 0 52.223739 4.266645 78.506274 12.970602 26.453201 8.533291 49.32242 24.746543 68.266325 48.639757 19.114571 23.893214 32.59717 54.101063 40.618464 90.794213 8.191959 36.522484 12.117273 81.748925 12.117273 135.33799l-0.511998 340.478297A117.076748 117.076748 0 0 1 1501.005828 1023.998293h-57.85571a59.050371 59.050371 0 0 1-59.050372-59.050371c-14.335928 10.239949-27.989193 19.285237-40.959795 26.623867a153.428566 153.428566 0 0 1-50.005083 16.213252c-20.479898 3.413316-49.493086 5.119974-87.039565 5.119974h-92.159539c-29.525186 0-57.002382-2.730653-82.602254-8.021293a123.732715 123.732715 0 0 1-67.412996-40.959795 185.684405 185.684405 0 0 1-39.765135-64.853009 373.587465 373.587465 0 0 1-13.994596-87.039565 500.050833 500.050833 0 0 1 2.901318-103.082151c4.09598-27.477196 12.117273-53.247734 24.234546-77.482279a131.754008 131.754008 0 0 1 52.394405-55.978387c22.869219-13.311933 53.759731-19.9679 92.842202-19.9679h166.569834c5.802638 0 24.234545 1.194661 55.466389 3.754648 31.061178 2.389321 49.493086 5.29064 55.466389 8.874622l24.06388 13.994597c0-18.773239 0-34.64516-0.341331-47.786428a143.871281 143.871281 0 0 0-5.973304-38.570474 51.882407 51.882407 0 0 0-22.527887-29.866517 129.194021 129.194021 0 0 0-35.839821-15.871921 147.796594 147.796594 0 0 0-38.74114-5.119974H1225.38054a81.748925 81.748925 0 0 0-32.255839 6.143969c-9.898617 4.266645-14.67726 8.021293-14.67726 11.434609a50.687747 50.687747 0 0 1-49.151754 37.546479z m108.884789 341.672959h38.911805c31.40251 0 54.101063-1.706658 67.924994-5.119975a52.735736 52.735736 0 0 0 32.938502-24.746543c8.021293-12.970602 10.751946-32.085173 8.021293-57.173047a66.218336 66.218336 0 0 0-11.093278-32.767836 47.786428 47.786428 0 0 0-25.770538-15.359923 251.732075 251.732075 0 0 0-59.221037-4.949309h-55.125058a129.194021 129.194021 0 0 0-40.618463 6.997298 75.604955 75.604955 0 0 0-31.914507 18.431908 48.981088 48.981088 0 0 0-11.946607 31.40251 84.820909 84.820909 0 0 0 1.877324 30.207849c2.730653 11.946607 7.33863 21.162561 14.165262 27.989193 6.655967 6.826633 16.213252 12.799936 28.501191 17.749245a116.394085 116.394085 0 0 0 43.349117 7.33863z m1187.151397-572.925136h19.285237a94.378195 94.378195 0 0 1 89.087555 124.927376L2358.60154 910.676193a152.916569 152.916569 0 0 1-144.724609 103.764815h-91.306211a152.916569 152.916569 0 0 1-144.553943-102.911486l-176.980449-511.144111a98.986172 98.986172 0 0 1 93.3542-131.412676h27.647862a152.916569 152.916569 0 0 1 145.748604 105.300807l107.178131 328.873022 104.447478-327.678361a152.916569 152.916569 0 0 1 146.089936-106.666134z m498.685507 231.422843H2798.919339a63.658348 63.658348 0 0 1-63.487683-64.853009c0-20.821229 2.389321-38.570474 7.33863-53.589065a122.70872 122.70872 0 0 1 26.794533-43.861114 159.913867 159.913867 0 0 1 47.786428-35.498489c18.773239-9.215954 39.253137-15.189257 61.098361-17.578579a786.769399 786.769399 0 0 1 72.53297-4.437311l262.825353-1.535993c25.941204 0 52.053073 4.266645 78.506274 12.970602 26.453201 8.533291 49.151754 24.746543 68.266325 48.639757 18.943905 23.893214 32.426505 54.101063 40.618464 90.794213 8.021293 36.522484 12.117273 81.748925 12.117273 135.33799l-0.511998 340.478297a117.076748 117.076748 0 0 1-117.076748 116.906082h-58.026376a59.050371 59.050371 0 0 1-58.879706-59.050371c-14.335928 10.239949-27.989193 19.285237-40.959795 26.623867a153.428566 153.428566 0 0 1-50.005083 16.213252c-20.479898 3.413316-49.493086 5.119974-87.039565 5.119974h-92.159539c-29.525186 0-57.002382-2.730653-82.602254-8.021293a123.732715 123.732715 0 0 1-67.583662-40.959795 185.684405 185.684405 0 0 1-39.594469-64.853009 373.587465 373.587465 0 0 1-14.165262-87.039565 500.050833 500.050833 0 0 1 3.071984-103.082151c4.09598-27.477196 12.117273-53.247734 24.234546-77.482279a131.754008 131.754008 0 0 1 52.394405-55.978387c22.869219-13.311933 53.759731-19.9679 92.671536-19.9679h166.7405c5.802638 0 24.234545 1.194661 55.295723 3.754648 31.231844 2.389321 49.663752 5.29064 55.46639 8.874622l24.234545 13.994597c0-18.773239 0-34.64516-0.341331-47.786428a143.871281 143.871281 0 0 0-5.973304-38.570474 51.882407 51.882407 0 0 0-22.527887-29.866517 129.194021 129.194021 0 0 0-35.839821-15.871921 147.796594 147.796594 0 0 0-38.74114-5.119974h-55.125057a81.748925 81.748925 0 0 0-32.426505 6.143969c-9.727951 4.266645-14.67726 8.021293-14.67726 11.434609a50.687747 50.687747 0 0 1-48.981088 37.546479z m108.884789 341.502293H3071.98464c31.40251 0 53.930397-1.706658 67.924994-5.119975a52.735736 52.735736 0 0 0 32.938502-24.746543c8.021293-12.970602 10.751946-32.085173 8.021293-57.173047a66.218336 66.218336 0 0 0-11.093278-32.767836 47.786428 47.786428 0 0 0-25.941204-15.359923 251.732075 251.732075 0 0 0-59.050371-4.949309h-55.125058a129.194021 129.194021 0 0 0-40.618463 6.997298 75.604955 75.604955 0 0 0-31.914507 18.431908 48.981088 48.981088 0 0 0-12.117273 31.40251 84.820909 84.820909 0 0 0 2.04799 30.207849c2.559987 11.946607 7.33863 21.162561 13.994596 27.989193 6.826633 6.826633 16.383918 12.799936 28.671857 17.749245a116.394085 116.394085 0 0 0 43.349117 7.33863z" fill="#FF9F00" p-id="34269"></path></svg>