<?xml version="1.0" standalone="no"?><!DOCTYPE svg PUBLIC "-//W3C//DTD SVG 1.1//EN" "http://www.w3.org/Graphics/SVG/1.1/DTD/svg11.dtd"><svg t="1566872058089" class="icon" viewBox="0 0 1024 1024" version="1.1" xmlns="http://www.w3.org/2000/svg" p-id="2212" xmlns:xlink="http://www.w3.org/1999/xlink" width="200" height="200"><defs><style type="text/css"></style></defs><path d="M511.9 950.8c-31.7 0-142.4-3.5-240.7-47.9C167 855.8 112 777.9 112 677.8c0-69.3 15.1-135 45-195.1 6.9-14 23.8-19.7 37.8-12.8 14 6.9 19.7 23.8 12.8 37.8-26 52.3-39.1 109.5-39.1 170.1 0 77.4 42.4 135.8 126 173.6 87.9 39.8 188.7 42.9 217.4 42.9 28.8 0 129.5-3.1 217.4-42.9 83.7-37.9 126-96.3 126-173.6 0-64.1-17.5-128.8-50.6-187.2-7.7-13.6-2.9-30.7 10.6-38.4 13.6-7.7 30.7-2.9 38.4 10.6 37.8 66.9 57.8 141.2 57.8 215 0 100.1-55 177.9-159.2 225-97.9 44.5-208.7 48-240.4 48z m-97.2-628.2l-18.3-53.4c37.5-12.8 76.4-19.4 115.5-19.4 37.4 0 74.6 6 110.7 17.8l-17.5 53.6c-30.4-9.9-61.6-15-93.2-15-32.8 0-65.6 5.5-97.2 16.4z" fill="#FFA500" p-id="2213"></path><path d="M167.7 561.8c-1.6 0-3.1-0.2-4.7-0.4-15.3-2.6-25.7-17.2-23.2-32.5 0.6-3.7 15.9-93.1 47.5-194C231.2 195.4 283.9 105.6 343.9 68c6.8-4.3 15-5.4 22.7-3.2 7.7 2.2 14 7.5 17.6 14.7 50.3 102.3 73.3 196.6 74.2 200.6 3.6 15.2-5.7 30.4-20.9 34-15.2 3.6-30.4-5.7-34-20.9-0.2-0.8-17.8-73-54.9-156.6C310 176 273.3 249.4 241.1 351.9c-30.5 97.2-45.5 185.5-45.7 186.4-2.3 13.7-14.2 23.5-27.7 23.5z m688.7 0c-13.5 0-25.4-9.7-27.8-23.5-0.2-1.1-15.3-89.9-45.9-187-32.1-102.2-68.7-175.4-107.2-214.7-37.2 83.8-54.7 155.8-54.9 156.6-3.6 15.2-18.8 24.5-34 20.9s-24.5-18.8-20.9-34c0.9-3.9 23.8-98.3 74.2-200.6 3.5-7.1 9.9-12.5 17.6-14.7 7.7-2.2 15.9-1 22.7 3.2 60 37.6 112.7 127.4 156.5 266.9 31.7 100.9 46.9 190.2 47.5 194 2.6 15.3-7.7 29.9-23.2 32.5-1.4 0.2-3 0.4-4.6 0.4zM530 642.6h-35.4c-22.8 0-37.1 24.7-25.7 44.5l17.7 18.2c12.7 12.1 38.1 12.1 51.4 0l17.7-18.2c11.4-19.7-2.8-44.5-25.7-44.5zM389.1 622c-15.6 0-28.2-12.6-28.2-28.2v-63.9c0-15.6 12.6-28.2 28.2-28.2s28.2 12.6 28.2 28.2v63.9c0 15.5-12.6 28.2-28.2 28.2z m245.7 0c-15.6 0-28.2-12.6-28.2-28.2v-63.9c0-15.6 12.6-28.2 28.2-28.2s28.2 12.6 28.2 28.2v63.9c-0.1 15.5-12.7 28.2-28.2 28.2z" fill="#FFA500" p-id="2214"></path><path d="M467.2 782.2h-0.5c-35.2-0.5-56.9-50.6-59.2-56.3-3-7.2 0.5-15.4 7.7-18.4s15.4 0.5 18.4 7.7c6.5 15.6 21.6 38.8 33.6 38.9h0.1c9.1 0 20.9-14.7 31.8-39.3 3.1-7.1 11.5-10.3 18.6-7.2 7.1 3.1 10.3 11.5 7.2 18.6-16.7 37.7-35.5 56-57.7 56z" fill="#FFA500" p-id="2215"></path><path d="M556.7 782.2c-22.1 0-40.9-18.3-57.6-56-3.1-7.1 0.1-15.4 7.2-18.6 7.1-3.1 15.4 0.1 18.6 7.2 10.9 24.6 22.8 39.3 31.8 39.3h0.1c12.5-0.2 28-25.4 33.6-38.9 3-7.2 11.2-10.6 18.4-7.7 7.2 3 10.6 11.2 7.7 18.4-2.4 5.7-24 55.9-59.2 56.3h-0.6z" fill="#FFA500" p-id="2216"></path></svg>